<svg width="35" height="35" viewBox="0 0 35 35" fill="none" xmlns="http://www.w3.org/2000/svg">
<path d="M17.4848 0.905946C8.06611 0.902138 0.4375 8.52694 0.4375 17.938C0.4375 25.38 5.20967 31.706 11.8557 34.0293C12.7507 34.254 12.6136 33.618 12.6136 33.1838V30.2321C7.44531 30.8377 7.23584 27.4176 6.88926 26.8463C6.18848 25.6504 4.53174 25.3457 5.02686 24.7744C6.20371 24.1688 7.40342 24.9267 8.79355 26.9796C9.79902 28.4687 11.7604 28.2174 12.7545 27.9698C12.9716 27.0748 13.4362 26.275 14.0761 25.6542C8.72119 24.6944 6.48936 21.4266 6.48936 17.5419C6.48936 15.6566 7.11016 13.9237 8.32891 12.526C7.55195 10.2218 8.40127 8.24891 8.51553 7.95565C10.7283 7.75761 13.0287 9.54003 13.2077 9.68095C14.4646 9.34198 15.9004 9.16298 17.5076 9.16298C19.1225 9.16298 20.5621 9.3496 21.8304 9.69237C22.2607 9.36483 24.3936 7.83378 26.4502 8.0204C26.5606 8.31366 27.3909 10.2408 26.6597 12.5145C27.8937 13.9161 28.5221 15.6642 28.5221 17.5533C28.5221 21.4457 26.275 24.7173 20.9049 25.6618C21.3648 26.1141 21.7301 26.6536 21.9792 27.2487C22.2284 27.8438 22.3564 28.4825 22.356 29.1276V33.4123C22.3864 33.7551 22.356 34.094 22.9272 34.094C29.6723 31.8203 34.5282 25.4485 34.5282 17.9418C34.5282 8.52694 26.8958 0.905946 17.4848 0.905946Z" fill="#282828"/>
</svg>
