<svg width="64" height="64" viewBox="0 0 64 64" fill="none" xmlns="http://www.w3.org/2000/svg">
<circle cx="32" cy="32" r="32" fill="#E5E0FF"/>
<g clip-path="url(#clip0_77_23)">
<path d="M42.3281 13H22.6719C17.8825 13 14 16.8825 14 21.6719V41.3281C14 46.1175 17.8825 50 22.6719 50H42.3281C47.1175 50 51 46.1175 51 41.3281V21.6719C51 16.8825 47.1175 13 42.3281 13Z" fill="#0277BD"/>
<path d="M21.769 27.8363L22.1826 32.4529H32.5139V27.8363H21.769ZM32.5137 18.4922H20.9375L21.3572 23.1088H32.5137V18.4922ZM32.5137 44.6294V39.8262L32.4935 39.8315L27.3519 38.4433L27.0233 34.7612H22.3889L23.0357 42.01L32.4925 44.6353L32.5137 44.6294Z" fill="#EBEBEB"/>
<path d="M38.1826 32.4529L37.6467 38.4402L32.4978 39.8301V44.633L41.9621 42.01L42.0315 41.23L43.1164 29.0761L43.229 27.8363L44.0625 18.4922H32.4978V23.1088H39.003L38.583 27.8363H32.4978V32.4529H38.1826Z" fill="white"/>
</g>
<defs>
<clipPath id="clip0_77_23">
<rect width="37" height="37" fill="white" transform="translate(14 13)"/>
</clipPath>
</defs>
</svg>
