<svg width="64" height="64" viewBox="0 0 64 64" fill="none" xmlns="http://www.w3.org/2000/svg">
<circle cx="32" cy="32" r="32" fill="#E5E0FF"/>
<g clip-path="url(#clip0_77_27)">
<path d="M27.1523 50.2891C30.5922 50.2891 33.3672 47.5141 33.3672 44.0742V37.8594H27.1523C23.7125 37.8594 20.9375 40.6344 20.9375 44.0742C20.9375 47.5141 23.7125 50.2891 27.1523 50.2891Z" fill="#0ACF83"/>
<path d="M20.9375 31.6445C20.9375 28.2047 23.7125 25.4297 27.1523 25.4297H33.3672V37.8594H27.1523C23.7125 37.8594 20.9375 35.0844 20.9375 31.6445Z" fill="#A259FF"/>
<path d="M20.9375 19.2148C20.9375 15.775 23.7125 13 27.1523 13H33.3672V25.4297H27.1523C23.7125 25.4297 20.9375 22.6547 20.9375 19.2148Z" fill="#F24E1E"/>
<path d="M33.3672 13H39.582C43.0219 13 45.7969 15.775 45.7969 19.2148C45.7969 22.6547 43.0219 25.4297 39.582 25.4297H33.3672V13Z" fill="#FF7262"/>
<path d="M45.7969 31.6445C45.7969 35.0844 43.0219 37.8594 39.582 37.8594C36.1422 37.8594 33.3672 35.0844 33.3672 31.6445C33.3672 28.2047 36.1422 25.4297 39.582 25.4297C43.0219 25.4297 45.7969 28.2047 45.7969 31.6445Z" fill="#1ABCFE"/>
</g>
<defs>
<clipPath id="clip0_77_27">
<rect width="37" height="37" fill="white" transform="translate(14 13)"/>
</clipPath>
</defs>
</svg>
