<svg width="64" height="64" viewBox="0 0 64 64" fill="none" xmlns="http://www.w3.org/2000/svg">
<circle cx="32" cy="32" r="32" fill="#E5E0FF"/>
<g clip-path="url(#clip0_77_25)">
<path d="M42.3281 13H22.6719C17.8825 13 14 16.8825 14 21.6719V41.3281C14 46.1175 17.8825 50 22.6719 50H42.3281C47.1175 50 51 46.1175 51 41.3281V21.6719C51 16.8825 47.1175 13 42.3281 13Z" fill="#E14E1D"/>
<path d="M20.9375 18.4922L22.1819 32.4529H38.183L37.646 38.4408L32.4941 39.8338L27.3518 38.4428L27.008 34.598H22.3741L23.0368 42.0097L32.4931 44.6362L41.9613 42.0097L43.2307 27.8369H26.4042L25.9818 23.1092H43.649L44.0625 18.4922H20.9375Z" fill="white"/>
<path d="M32.5 18.4922H20.9375L22.1819 32.4529H32.5V27.8369H26.4042L25.9818 23.1092H32.5V18.4922ZM32.5 39.8318L32.4941 39.8338L27.3518 38.4428L27.008 34.598H22.3741L23.0368 42.0097L32.4931 44.6362L32.5001 44.6341L32.5 39.8318Z" fill="#EBEBEB"/>
</g>
<defs>
<clipPath id="clip0_77_25">
<rect width="37" height="37" fill="white" transform="translate(14 13)"/>
</clipPath>
</defs>
</svg>
