<svg width="39" height="39" viewBox="0 0 39 39" fill="none" xmlns="http://www.w3.org/2000/svg">
<path d="M30.9562 7.97875C29.4664 6.47388 27.6919 5.28072 25.7362 4.46884C23.7804 3.65696 21.6826 3.24263 19.565 3.25001C10.6925 3.25001 3.46124 10.4813 3.46124 19.3538C3.46124 22.1975 4.20874 24.96 5.60624 27.3975L3.33124 35.75L11.8625 33.5075C14.2187 34.7913 16.8675 35.4738 19.565 35.4738C28.4375 35.4738 35.6687 28.2425 35.6687 19.37C35.6687 15.0638 33.995 11.0175 30.9562 7.97875ZM19.565 32.7438C17.16 32.7438 14.8037 32.0938 12.74 30.875L12.2525 30.5825L7.18249 31.915L8.53124 26.975L8.20624 26.4713C6.87008 24.3376 6.16059 21.8713 6.15874 19.3538C6.15874 11.9763 12.1712 5.96376 19.5487 5.96376C23.1237 5.96376 26.4875 7.36126 29.0062 9.89626C30.2534 11.1377 31.2417 12.6143 31.914 14.2406C32.5863 15.8668 32.929 17.6103 32.9225 19.37C32.955 26.7475 26.9425 32.7438 19.565 32.7438ZM26.91 22.7338C26.5037 22.5388 24.5212 21.5638 24.1637 21.4175C23.79 21.2875 23.53 21.2225 23.2537 21.6125C22.9775 22.0188 22.2137 22.9288 21.9862 23.1888C21.7587 23.465 21.515 23.4975 21.1087 23.2863C20.7025 23.0913 19.4025 22.6525 17.875 21.2875C16.6725 20.215 15.8762 18.8988 15.6325 18.4925C15.405 18.0863 15.6 17.875 15.8112 17.6638C15.99 17.485 16.2175 17.1925 16.4125 16.965C16.6075 16.7375 16.6887 16.5588 16.8187 16.2988C16.9487 16.0225 16.8837 15.795 16.7862 15.6C16.6887 15.405 15.8762 13.4225 15.5512 12.61C15.2262 11.83 14.885 11.9275 14.6412 11.9113H13.8612C13.585 11.9113 13.1625 12.0088 12.7887 12.415C12.4312 12.8213 11.3912 13.7963 11.3912 15.7788C11.3912 17.7613 12.8375 19.6788 13.0325 19.9388C13.2275 20.215 15.8762 24.2775 19.9062 26.0163C20.865 26.4388 21.6125 26.6825 22.1975 26.8613C23.1562 27.17 24.0337 27.1213 24.7325 27.0238C25.5125 26.91 27.1212 26.0488 27.4462 25.1063C27.7875 24.1638 27.7875 23.3675 27.6737 23.1888C27.56 23.01 27.3162 22.9288 26.91 22.7338Z" fill="#282828"/>
</svg>
