<svg width="64" height="64" viewBox="0 0 64 64" fill="none" xmlns="http://www.w3.org/2000/svg">
<circle cx="32" cy="32" r="32" fill="#E5E0FF"/>
<g clip-path="url(#clip0_77_26)">
<path d="M14 13H51V50H14V13Z" fill="#F7DF1E"/>
<path d="M23.7287 43.9198L26.56 42.2063C27.1064 43.1748 27.6033 43.9943 28.7952 43.9943C29.9377 43.9943 30.6582 43.5474 30.6582 41.809V29.9866H34.1352V41.8581C34.1352 45.4594 32.0242 47.0987 28.9442 47.0987C26.1627 47.0987 24.5482 45.6581 23.7285 43.9196M36.0238 43.5472L38.8549 41.9081C39.6002 43.1252 40.5689 44.0193 42.2824 44.0193C43.7233 44.0193 44.6419 43.2989 44.6419 42.3054C44.6419 41.1133 43.6981 40.691 42.1086 39.9958L41.2395 39.6229C38.7309 38.5553 37.0669 37.214 37.0669 34.3827C37.0669 31.7747 39.0537 29.7877 42.1584 29.7877C44.3689 29.7877 45.9584 30.5578 47.1008 32.5695L44.3935 34.3082C43.7973 33.2403 43.1518 32.8181 42.1583 32.8181C41.1399 32.8181 40.4941 33.4639 40.4941 34.3082C40.4941 35.3513 41.1399 35.7738 42.63 36.4195L43.4992 36.792C46.4549 38.0588 48.1189 39.3502 48.1189 42.2559C48.1189 45.3855 45.6601 47.0991 42.3569 47.0991C39.1282 47.0991 37.0419 45.5593 36.0236 43.5474" fill="black"/>
</g>
<defs>
<clipPath id="clip0_77_26">
<rect width="37" height="37" fill="white" transform="translate(14 13)"/>
</clipPath>
</defs>
</svg>
