<svg width="42" height="41" viewBox="0 0 42 41" fill="none" xmlns="http://www.w3.org/2000/svg">
<rect width="42" height="41" rx="5" fill="#8EA7E9"/>
<path d="M19.7273 8.72727H22.5455V25.3636C22.5455 26.8485 22.2727 28.1098 21.7273 29.1477C21.1818 30.1856 20.4129 30.9735 19.4205 31.5114C18.428 32.0492 17.2576 32.3182 15.9091 32.3182C14.6364 32.3182 13.5038 32.0871 12.5114 31.625C11.5189 31.1553 10.7386 30.4886 10.1705 29.625C9.60227 28.7614 9.31818 27.7348 9.31818 26.5455H12.0909C12.0909 27.2045 12.2538 27.7803 12.5795 28.2727C12.9129 28.7576 13.3674 29.1364 13.9432 29.4091C14.5189 29.6818 15.1742 29.8182 15.9091 29.8182C16.7197 29.8182 17.4091 29.6477 17.9773 29.3068C18.5455 28.9659 18.9773 28.4659 19.2727 27.8068C19.5758 27.1402 19.7273 26.3258 19.7273 25.3636V8.72727ZM28.6903 32.1818C28.1297 32.1818 27.6487 31.9811 27.2472 31.5795C26.8456 31.178 26.6449 30.697 26.6449 30.1364C26.6449 29.5758 26.8456 29.0947 27.2472 28.6932C27.6487 28.2917 28.1297 28.0909 28.6903 28.0909C29.2509 28.0909 29.732 28.2917 30.1335 28.6932C30.535 29.0947 30.7358 29.5758 30.7358 30.1364C30.7358 30.5076 30.6411 30.8485 30.4517 31.1591C30.2699 31.4697 30.0237 31.7197 29.7131 31.9091C29.41 32.0909 29.0691 32.1818 28.6903 32.1818Z" fill="white"/>
</svg>
