<svg width="64" height="64" viewBox="0 0 64 64" fill="none" xmlns="http://www.w3.org/2000/svg">
<circle cx="32" cy="32" r="32" fill="#E5E0FF"/>
<path d="M32.409 35.1516C34.4165 35.1516 36.044 33.5167 36.044 31.5C36.044 29.4833 34.4165 27.8484 32.409 27.8484C30.4014 27.8484 28.774 29.4833 28.774 31.5C28.774 33.5167 30.4014 35.1516 32.409 35.1516Z" fill="#61DAFB"/>
<path d="M46.2155 25.4781C45.514 25.2219 44.7807 24.9656 44.0154 24.7414C44.2067 23.9727 44.3661 23.2039 44.4937 22.4672C45.1633 18.2391 44.4299 15.2602 42.3892 14.107C41.7834 13.7547 41.1138 13.5945 40.3485 13.5945C38.1165 13.5945 35.2787 15.2602 32.409 18.0469C29.5392 15.2602 26.7014 13.5945 24.4694 13.5945C23.7041 13.5945 23.0345 13.7547 22.4287 14.107C20.388 15.2922 19.6546 18.2711 20.3242 22.4672C20.4518 23.2039 20.6112 23.9727 20.8025 24.7414C20.0373 24.9656 19.3039 25.1899 18.6024 25.4781C14.6167 27.0156 12.4484 29.1297 12.4484 31.5C12.4484 33.8703 14.6485 35.9844 18.6024 37.5219C19.3039 37.7781 20.0373 38.0344 20.8025 38.2586C20.6112 39.0274 20.4518 39.7961 20.3242 40.5328C19.6546 44.7609 20.388 47.7399 22.4287 48.893C23.0345 49.2453 23.7041 49.4055 24.4694 49.4055C26.7333 49.4055 29.5711 47.7399 32.409 44.9531C35.2787 47.7399 38.1165 49.4055 40.3485 49.4055C41.1138 49.4055 41.7834 49.2453 42.3892 48.893C44.4299 47.7078 45.1633 44.7289 44.4937 40.5328C44.3661 39.7961 44.2067 39.0274 44.0154 38.2586C44.7807 38.0344 45.514 37.8102 46.2155 37.5219C50.2012 35.9844 52.3695 33.8703 52.3695 31.5C52.3695 29.1297 50.2012 27.0156 46.2155 25.4781ZM41.4964 15.7086C42.8037 16.4774 43.2501 18.8477 42.7081 22.2109C42.6124 22.8836 42.453 23.5883 42.2617 24.325C40.6036 23.9406 38.8499 23.6844 37.0005 23.5242C35.9164 21.9867 34.8004 20.6094 33.6844 19.3602C36.0439 17.0219 38.4354 15.4203 40.3804 15.4203C40.7949 15.4203 41.1776 15.5164 41.4964 15.7086ZM37.9252 34.7031C37.3513 35.7281 36.6816 36.7531 35.9802 37.7781C34.8004 37.8742 33.6206 37.9063 32.409 37.9063C31.1654 37.9063 29.9856 37.8742 28.8377 37.7781C28.1362 36.7531 27.4985 35.7281 26.9246 34.7031C26.3188 33.6461 25.7448 32.557 25.2346 31.5C25.7448 30.443 26.3188 29.3539 26.9246 28.2969C27.4985 27.2719 28.1681 26.2469 28.8696 25.2219C30.0494 25.1258 31.2292 25.0938 32.4408 25.0938C33.6844 25.0938 34.8642 25.1258 36.012 25.2219C36.7135 26.2469 37.3513 27.2719 37.9252 28.2969C38.531 29.3539 39.105 30.443 39.6151 31.5C39.0731 32.557 38.531 33.6141 37.9252 34.7031ZM40.5717 33.6461C41.05 34.7672 41.4326 35.8563 41.7834 36.9453C40.6993 37.2016 39.5514 37.3938 38.3397 37.5539C38.7223 36.9453 39.1369 36.3047 39.4876 35.632C39.8702 34.9594 40.221 34.2867 40.5717 33.6461ZM32.409 42.3266C31.6437 41.4938 30.9103 40.5969 30.2088 39.668C30.9422 39.7 31.6756 39.732 32.409 39.732C33.1423 39.732 33.8757 39.7 34.6091 39.668C33.9076 40.5969 33.1742 41.4938 32.409 42.3266ZM26.4782 37.5219C25.2665 37.3617 24.1186 37.1695 23.0345 36.9133C23.3853 35.8563 23.7679 34.7352 24.2462 33.6141C24.5969 34.2547 24.9477 34.9274 25.3303 35.568C25.7129 36.2727 26.0956 36.8813 26.4782 37.5219ZM24.2462 29.3539C23.7679 28.2328 23.3853 27.1438 23.0345 26.0547C24.1186 25.7985 25.2665 25.6063 26.4782 25.4461C26.0956 26.0547 25.681 26.6953 25.3303 27.368C24.9477 28.0406 24.5969 28.7133 24.2462 29.3539ZM32.409 20.6734C33.1742 21.5063 33.9076 22.4031 34.6091 23.332C33.8757 23.3 33.1423 23.268 32.409 23.268C31.6756 23.268 30.9422 23.3 30.2088 23.332C30.9103 22.4031 31.6437 21.5063 32.409 20.6734ZM39.4876 27.4L38.3397 25.4781C39.5514 25.6383 40.6993 25.8305 41.7834 26.0867C41.4326 27.1438 41.05 28.2649 40.5717 29.386C40.221 28.7133 39.8702 28.0406 39.4876 27.4ZM22.1098 22.2109C21.5678 18.8477 22.0142 16.4774 23.3215 15.7086C23.6403 15.5164 24.023 15.4203 24.4375 15.4203C26.3506 15.4203 28.7421 16.9899 31.1335 19.3602C30.0175 20.5774 28.9015 21.9867 27.8174 23.5242C25.968 23.6844 24.2143 23.9727 22.5562 24.325C22.3649 23.5883 22.2374 22.8836 22.1098 22.2109ZM14.234 31.5C14.234 29.9945 16.0515 28.393 19.2401 27.2078C19.8778 26.9516 20.5793 26.7274 21.2808 26.5352C21.791 28.1367 22.4287 29.8344 23.1939 31.532C22.4287 33.2297 21.7591 34.8953 21.2808 36.4969C16.8806 35.2156 14.234 33.2938 14.234 31.5ZM23.3215 47.2914C22.0142 46.5227 21.5678 44.1524 22.1098 40.7891C22.2055 40.1164 22.3649 39.4117 22.5562 38.675C24.2143 39.0594 25.968 39.3156 27.8174 39.4758C28.9015 41.0133 30.0175 42.3906 31.1335 43.6399C28.774 45.9781 26.3825 47.5797 24.4375 47.5797C24.023 47.5797 23.6403 47.4836 23.3215 47.2914ZM42.7081 40.7891C43.2501 44.1524 42.8037 46.5227 41.4964 47.2914C41.1776 47.4836 40.7949 47.5797 40.3804 47.5797C38.4673 47.5797 36.0758 46.0102 33.6844 43.6399C34.8004 42.4227 35.9164 41.0133 37.0005 39.4758C38.8499 39.3156 40.6036 39.0274 42.2617 38.675C42.453 39.4117 42.5805 40.1164 42.7081 40.7891ZM45.5778 35.7922C44.9401 36.0485 44.2386 36.2727 43.5371 36.4649C43.0269 34.8633 42.3892 33.1656 41.624 31.468C42.3892 29.7703 43.0588 28.1047 43.5371 26.5031C47.9373 27.7844 50.5839 29.7063 50.5839 31.5C50.5839 33.0055 48.7345 34.607 45.5778 35.7922Z" fill="#61DAFB"/>
</svg>
